HIERARCHY
ROOT Hips
{
    OFFSET   0.000000   0.000000   0.000000
    CHANNELS 6 Xposition Yposition Zposition Zrotation Xrotation Yrotation
    JOINT Chest
    {
        OFFSET   0.000000   8.007230   0.000000
        CHANNELS 3 Zrotation Xrotation Yrotation
        JOINT Chest2
        {
            OFFSET   0.000000  22.077100   0.000000
            CHANNELS 3 Zrotation Xrotation Yrotation
            JOINT Neck
            {
                OFFSET   0.000000  23.255100   0.000000
                CHANNELS 3 Zrotation Xrotation Yrotation
                JOINT Head
                {
                    OFFSET   0.000000  14.370100   1.956600
                    CHANNELS 3 Zrotation Xrotation Yrotation
                    End Site
                    {
                        OFFSET   0.000000  19.566000   0.000000
                    }
                }
            }
            JOINT LeftCollar
            {
                OFFSET   3.911900  19.017000  -0.467063
                CHANNELS 3 Zrotation Xrotation Yrotation
                JOINT LeftShoulder
                {
                    OFFSET  10.383700   0.000000   0.000000
                    CHANNELS 3 Zrotation Xrotation Yrotation
                    JOINT LeftElbow
                    {
                        OFFSET  26.662100   0.001193   0.000980
                        CHANNELS 3 Zrotation Xrotation Yrotation
                        JOINT LeftWrist
                        {
                            OFFSET  28.869000  -0.000059  -0.000082
                            CHANNELS 3 Zrotation Xrotation Yrotation
                            JOINT LeftFinger0
                            {
                                OFFSET   2.044650  -2.323450   3.252850
                                CHANNELS 3 Zrotation Xrotation Yrotation
                                JOINT LeftFinger01
                                {
                                    OFFSET   3.088130   0.000000   0.000000
                                    CHANNELS 3 Zrotation Xrotation Yrotation
                                    JOINT LeftFinger02
                                    {
                                        OFFSET   2.639460   0.000000   0.000000
                                        CHANNELS 3 Zrotation Xrotation Yrotation
                                        End Site
                                        {
                                            OFFSET   2.582190   0.000000   0.000000
                                        }
                                    }
                                }
                            }
                            JOINT LeftFinger1
                            {
                                OFFSET   8.364480   0.000000   3.252850
                                CHANNELS 3 Zrotation Xrotation Yrotation
                                JOINT LeftFinger11
                                {
                                    OFFSET   4.646930   0.000000   0.000000
                                    CHANNELS 3 Zrotation Xrotation Yrotation
                                    JOINT LeftFinger12
                                    {
                                        OFFSET   2.323470   0.000000   0.000000
                                        CHANNELS 3 Zrotation Xrotation Yrotation
                                        End Site
                                        {
                                            OFFSET   2.273050   0.000000   0.000000
                                        }
                                    }
                                }
                            }
                            JOINT LeftFinger2
                            {
                                OFFSET   8.364490   0.000016   1.078090
                                CHANNELS 3 Zrotation Xrotation Yrotation
                                JOINT LeftFinger21
                                {
                                    OFFSET   5.111610   0.000000   0.000000
                                    CHANNELS 3 Zrotation Xrotation Yrotation
                                    JOINT LeftFinger22
                                    {
                                        OFFSET   2.788150   0.000016   0.000000
                                        CHANNELS 3 Zrotation Xrotation Yrotation
                                        End Site
                                        {
                                            OFFSET   2.727660   0.000000   0.000000
                                        }
                                    }
                                }
                            }
                            JOINT LeftFinger3
                            {
                                OFFSET   7.899780   0.000015  -1.078090
                                CHANNELS 3 Zrotation Xrotation Yrotation
                                JOINT LeftFinger31
                                {
                                    OFFSET   4.646930   0.000000   0.000000
                                    CHANNELS 3 Zrotation Xrotation Yrotation
                                    JOINT LeftFinger32
                                    {
                                        OFFSET   2.323470   0.000000   0.000000
                                        CHANNELS 3 Zrotation Xrotation Yrotation
                                        End Site
                                        {
                                            OFFSET   2.273050   0.000000   0.000000
                                        }
                                    }
                                }
                            }
                            JOINT LeftFinger4
                            {
                                OFFSET   7.435090   0.000000  -3.252850
                                CHANNELS 3 Zrotation Xrotation Yrotation
                                JOINT LeftFinger41
                                {
                                    OFFSET   3.717550   0.000000   0.000000
                                    CHANNELS 3 Zrotation Xrotation Yrotation
                                    JOINT LeftFinger42
                                    {
                                        OFFSET   1.858770   0.000000   0.000000
                                        CHANNELS 3 Zrotation Xrotation Yrotation
                                        End Site
                                        {
                                            OFFSET   1.818440   0.000000   0.000000
                                        }
                                    }
                                }
                            }
                        }
                    }
                }
            }
            JOINT RightCollar
            {
                OFFSET  -3.911910  19.017000  -0.467062
                CHANNELS 3 Zrotation Xrotation Yrotation
                JOINT RightShoulder
                {
                    OFFSET -10.383700   0.000014   0.000000
                    CHANNELS 3 Zrotation Xrotation Yrotation
                    JOINT RightElbow
                    {
                        OFFSET -26.662100   0.001225   0.001091
                        CHANNELS 3 Zrotation Xrotation Yrotation
                        JOINT RightWrist
                        {
                            OFFSET -28.869000  -0.000020  -0.000085
                            CHANNELS 3 Zrotation Xrotation Yrotation
                            JOINT RightFinger0
                            {
                                OFFSET  -2.044650  -2.323490   3.252850
                                CHANNELS 3 Zrotation Xrotation Yrotation
                                JOINT RightFinger01
                                {
                                    OFFSET  -3.088130   0.000000   0.000000
                                    CHANNELS 3 Zrotation Xrotation Yrotation
                                    JOINT RightFinger02
                                    {
                                        OFFSET  -2.639460   0.000000   0.000000
                                        CHANNELS 3 Zrotation Xrotation Yrotation
                                        End Site
                                        {
                                            OFFSET  -2.582190   0.000000   0.000000
                                        }
                                    }
                                }
                            }
                            JOINT RightFinger1
                            {
                                OFFSET  -8.364480   0.000000   3.252850
                                CHANNELS 3 Zrotation Xrotation Yrotation
                                JOINT RightFinger11
                                {
                                    OFFSET  -4.646930   0.000000   0.000000
                                    CHANNELS 3 Zrotation Xrotation Yrotation
                                    JOINT RightFinger12
                                    {
                                        OFFSET  -2.323470   0.000000   0.000000
                                        CHANNELS 3 Zrotation Xrotation Yrotation
                                        End Site
                                        {
                                            OFFSET  -2.273050   0.000000   0.000000
                                        }
                                    }
                                }
                            }
                            JOINT RightFinger2
                            {
                                OFFSET  -8.364480   0.000000   1.078090
                                CHANNELS 3 Zrotation Xrotation Yrotation
                                JOINT RightFinger21
                                {
                                    OFFSET  -5.111620   0.000000   0.000000
                                    CHANNELS 3 Zrotation Xrotation Yrotation
                                    JOINT RightFinger22
                                    {
                                        OFFSET  -2.788160   0.000000   0.000000
                                        CHANNELS 3 Zrotation Xrotation Yrotation
                                        End Site
                                        {
                                            OFFSET  -2.727660   0.000000   0.000000
                                        }
                                    }
                                }
                            }
                            JOINT RightFinger3
                            {
                                OFFSET  -7.899780   0.000000  -1.078090
                                CHANNELS 3 Zrotation Xrotation Yrotation
                                JOINT RightFinger31
                                {
                                    OFFSET  -4.646930   0.000000   0.000000
                                    CHANNELS 3 Zrotation Xrotation Yrotation
                                    JOINT RightFinger32
                                    {
                                        OFFSET  -2.323470   0.000000   0.000000
                                        CHANNELS 3 Zrotation Xrotation Yrotation
                                        End Site
                                        {
                                            OFFSET  -2.273050   0.000000   0.000000
                                        }
                                    }
                                }
                            }
                            JOINT RightFinger4
                            {
                                OFFSET  -7.435090   0.000000  -3.252850
                                CHANNELS 3 Zrotation Xrotation Yrotation
                                JOINT RightFinger41
                                {
                                    OFFSET  -3.717550   0.000000   0.000000
                                    CHANNELS 3 Zrotation Xrotation Yrotation
                                    JOINT RightFinger42
                                    {
                                        OFFSET  -1.858760   0.000000   0.000000
                                        CHANNELS 3 Zrotation Xrotation Yrotation
                                        End Site
                                        {
                                            OFFSET  -1.818440   0.000000   0.000000
                                        }
                                    }
                                }
                            }
                        }
                    }
                }
            }
        }
    }
    JOINT LeftHip
    {
        OFFSET   9.783030   0.000000   0.000000
        CHANNELS 3 Zrotation Xrotation Yrotation
        JOINT LeftKnee
        {
            OFFSET   0.000063 -41.789100   0.000608
            CHANNELS 3 Zrotation Xrotation Yrotation
            JOINT LeftAnkle
            {
                OFFSET   0.000048 -41.133200  -0.000184
                CHANNELS 3 Zrotation Xrotation Yrotation
                JOINT LeftToe
                {
                    OFFSET   0.000000  -6.358960  14.674500
                    CHANNELS 3 Zrotation Xrotation Yrotation
                    End Site
                    {
                        OFFSET   0.000000   0.000000   3.913200
                    }
                }
            }
        }
    }
    JOINT RightHip
    {
        OFFSET  -9.783030   0.000000   0.000000
        CHANNELS 3 Zrotation Xrotation Yrotation
        JOINT RightKnee
        {
            OFFSET   0.000071 -41.789100   0.001239
            CHANNELS 3 Zrotation Xrotation Yrotation
            JOINT RightAnkle
            {
                OFFSET   0.000037 -41.133200  -0.000166
                CHANNELS 3 Zrotation Xrotation Yrotation
                JOINT RightToe
                {
                    OFFSET   0.000000  -6.358960  14.674500
                    CHANNELS 3 Zrotation Xrotation Yrotation
                    End Site
                    {
                        OFFSET   0.000000   0.000000   3.913200
                    }
                }
            }
        }
    }
}
MOTION
Frames: 4
Frame Time:   0.016667
 -0.709712  89.496800  -3.073880  -4.342950 -14.236700  -4.916220   1.167980   6.803980   0.768219   2.267540  13.621700   1.410560   1.179850   1.329650  -0.037669   1.941050   2.692630  -0.212311  -8.786360   0.003684  -2.429370 -54.863800   9.170490 -45.626600  41.162700  -6.470990 -77.774500  71.632900  53.264800 -41.478900  65.505300  50.701100 -104.127000   5.416350   0.113948  -0.010823   7.708150   0.053472  -0.029320   2.970160  -1.576090 -32.950200   0.000001   0.011211  -0.006030   0.344149   0.007843  -0.004397  -0.994810   0.602717 -22.177000  -1.103300   0.018693   0.000489  -0.734788   0.012465   0.000596   4.689650  -0.958820 -14.661300  -0.000000  -0.009276  -0.002313   0.033291  -0.006137  -0.001717  -4.374530  -0.435320   8.994860  -6.697390   0.026266   0.038601  -4.460440   0.015059   0.026999  10.847500   2.638440   9.532390  48.497200   6.208790  49.617300 -45.377200 -16.836200  57.243000 -66.102000  25.107200  23.133900 -57.457600  48.960200  98.403600   2.100160   0.086436  -0.094913  -3.949930   0.046557  -0.044321   9.925690   4.434950  23.093700   8.914450   0.122362  -0.040268   6.240100   0.082788  -0.035546  11.167300   0.248609   0.825880  11.174100   0.082999  -0.030509   7.442000   0.052532  -0.026644   6.832900  -0.803246  -7.271990   6.871060   0.078892  -0.014955   4.576130   0.051768  -0.013409  14.091400  -2.481350 -10.184300  21.483900   0.146752  -0.097241  14.308200   0.080958  -0.084757   2.742620  16.535500   2.903410   1.396480   0.001536   3.325640  -1.228410  -2.853670   2.104560  -0.000000   0.000000   0.000000   6.329830  12.254000  -4.391740  -3.180360   6.439320  -4.130870  -1.069540  -5.199090   2.700510  -0.000000   0.000000   0.000000
 -0.706395  89.506300  -3.028740  -4.354580 -14.188600  -4.833340   1.222990   6.740980   0.750535   2.378200  13.495900   1.370640   1.070380   1.365650  -0.037625   1.766740   2.766220  -0.084775  -8.454570   0.203189  -2.368480 -50.111000  10.708600 -46.427400  42.998900  -6.828140 -75.399600  73.949700  50.301300 -47.401200  61.529100  49.986600 -100.770000   1.263740   0.195489   0.068721   5.631880   0.093902   0.020975   2.135430  -1.004530 -31.494900   0.000000   0.044903  -0.000343   0.305821   0.031402   0.000046  -1.638070   0.827191 -20.491600  -1.804700   0.045815   0.008889  -1.201930   0.030227   0.007046   3.813200  -0.573596 -12.710200  -0.022812   0.028253   0.006837   0.011869   0.018711   0.005006  -4.573330  -0.739452  11.959400  -7.060690   0.070474   0.076951  -4.702390   0.040406   0.057517  10.749900   2.870970   9.553210  45.977500   5.879610  49.204400 -45.003000 -15.259700  57.096800 -67.778100  25.875500  27.923600 -58.056300  50.525500 101.823000  -1.806860   0.011987  -0.037775  -5.903430   0.005967  -0.004355   8.604140   4.299570  26.018700   7.892670   0.159531  -0.040103   5.524850   0.109026  -0.035603  10.719200   1.185760   5.501200  10.786600   0.117195  -0.038928   7.183880   0.074629  -0.034439   6.411110  -0.309457  -3.204250   6.390040   0.097293  -0.017349   4.255780   0.063899  -0.015694  13.468500  -1.481350  -6.799000  20.369000   0.207894  -0.115344  13.565700   0.119428  -0.103474   2.779410  16.492800   2.913310   1.410410   0.039937   3.284520  -1.239490  -2.909580   2.049270  -0.000000   0.000000   0.000000   6.356230  12.278600  -4.404660  -3.135660   6.368460  -4.168310  -1.096350  -5.194940   2.669560  -0.000000   0.000000   0.000000
 -0.699069  89.515000  -2.974710  -4.354670 -14.145500  -4.757720   1.258090   6.668270   0.691466   2.459750  13.349800   1.247010   1.017500   1.409450  -0.037583   1.674340   2.855440   0.211734  -8.149750   0.406509  -2.270580 -45.556200  12.330000 -47.343500  43.764500  -7.634670 -72.994200  75.062700  47.498800 -50.616700  55.414700  48.023100 -95.356900  -5.343990   0.245197   0.181354   2.328110   0.118997   0.091682   0.563389  -0.108028 -27.998000  -0.000008   0.068410   0.006622   0.037526   0.047679   0.005503  -2.433270   0.938545 -16.694400  -2.628990   0.059616   0.014072  -1.750910   0.039183   0.011123   1.959080  -0.144345  -8.501920  -0.182498   0.080682   0.019874  -0.121526   0.053385   0.014649  -5.306540  -1.517170  17.031700  -8.358480   0.113787   0.103272  -5.566720   0.065754   0.078943  10.621500   3.103440   9.574200  42.761200   5.785180  48.585600 -44.806100 -13.609200  56.856400 -68.907600  26.253400  33.710700 -57.162200  51.648800 103.013000  -3.638680  -0.035612  -0.002163  -6.819340  -0.020832   0.034674   7.052360   4.003620  27.746400   6.624200   0.176581  -0.038949   4.636930   0.121345  -0.035611   9.837850   1.673620   8.968530   9.982930   0.131835  -0.041399   6.648640   0.084227  -0.036873   5.573330   0.138220   0.619157   5.566850   0.102178  -0.017717   3.707540   0.067135  -0.016063  12.485200  -0.843579  -4.633770  18.778800   0.239451  -0.119535  12.506600   0.140366  -0.109289   2.797250  16.450100   2.917760   1.429950   0.078340   3.263840  -1.245940  -2.958110   1.995200   0.000000   0.000000  -0.000000   6.374710  12.309300  -4.417680  -3.101990   6.297470  -4.204470  -1.122290  -5.192460   2.644500   0.000000   0.000000   0.000000
 -0.686352  89.522800  -2.909810  -4.335650 -14.112500  -4.694570   1.251930   6.593190   0.578690   2.463660  13.199100   1.021110   1.030320   1.455080  -0.037539   1.689280   2.948060   0.634260  -7.882500   0.529640  -2.055560 -42.079900  13.580900 -48.223800  43.761800  -8.459950 -71.029000  75.597100  45.060500 -49.978700  49.512400  44.968500 -89.932600 -11.684600   0.218991   0.234164  -0.842153   0.101465   0.123035  -1.135660   0.555082 -22.422500  -0.976034   0.069235   0.014523  -0.777089   0.048020   0.011483  -3.756580   0.772608 -11.182800  -3.894060   0.055955   0.013761  -2.593420   0.036774   0.010798  -0.462862  -0.100368  -2.691520  -1.160940   0.102758   0.026277  -0.785660   0.067843   0.019609  -6.943830  -2.807470  21.655000 -11.216600   0.113418   0.096729  -7.470250   0.065553   0.076060  10.514300   3.367740   9.678540  38.867600   6.308470  48.151900 -44.869600 -12.535200  56.345200 -69.183600  25.650500  40.166200 -56.085400  52.286400 103.549000  -3.434130  -0.033725  -0.000802  -6.717060  -0.019803   0.062103   5.065990   3.060320  28.806600   4.810680   0.101919  -0.018389   3.367480   0.070291  -0.017676   8.662700   1.723410  11.266700   8.809310   0.078980  -0.022375   5.866990   0.050724  -0.020233   4.670420   0.364977   3.879160   4.679210   0.050069  -0.007573   3.116380   0.032953  -0.006985  10.783700  -0.511096  -3.446560  16.292300   0.149788  -0.067625  10.850600   0.089440  -0.062779   2.788650  16.450700   2.911870   1.437360   0.062416   3.265120  -1.248280  -2.968490   1.945870  -0.000000   0.000000   0.000000   6.376010  12.353700  -4.417240  -3.086910   6.225310  -4.237960  -1.143830  -5.194120   2.623800   0.000000   0.000000   0.000000
